<mxfile host="app.diagrams.net" modified="2022-09-29T07:31:11.346Z" agent="5.0 (Windows NT 10.0; Win64; x64) AppleWebKit/537.36 (KHTML, like Gecko) Chrome/105.0.0.0 Safari/537.36" etag="upmXyJJ34NrMVJBc2IYj" version="20.3.7" type="github">
  <diagram id="XR9YpOgsPGwdvRDls5zJ" name="Page-1">
    <mxGraphModel dx="1038" dy="579" grid="1" gridSize="10" guides="1" tooltips="1" connect="1" arrows="1" fold="1" page="1" pageScale="1" pageWidth="850" pageHeight="1100" math="0" shadow="0">
      <root>
        <mxCell id="0" />
        <mxCell id="1" parent="0" />
        <mxCell id="FgaGsLwW8Ih5Koto9L3I-1" value="ESP32&lt;br&gt;" style="rounded=0;whiteSpace=wrap;html=1;" vertex="1" parent="1">
          <mxGeometry x="365" y="220" width="120" height="60" as="geometry" />
        </mxCell>
        <mxCell id="FgaGsLwW8Ih5Koto9L3I-2" value="ESP32 RC car" style="text;html=1;strokeColor=none;fillColor=none;align=left;verticalAlign=middle;whiteSpace=wrap;rounded=0;fontSize=36;fontStyle=1;fontFamily=Courier New;" vertex="1" parent="1">
          <mxGeometry x="280" y="60" width="290" height="30" as="geometry" />
        </mxCell>
        <mxCell id="FgaGsLwW8Ih5Koto9L3I-3" value="" style="shape=waypoint;sketch=0;size=6;pointerEvents=1;points=[];fillColor=none;resizable=0;rotatable=0;perimeter=centerPerimeter;snapToPoint=1;fontFamily=Courier New;fontSize=36;" vertex="1" parent="1">
          <mxGeometry x="510" y="60" width="40" height="40" as="geometry" />
        </mxCell>
        <mxCell id="FgaGsLwW8Ih5Koto9L3I-4" value="" style="rounded=0;whiteSpace=wrap;html=1;fontFamily=Courier New;fontSize=36;" vertex="1" parent="1">
          <mxGeometry x="520" y="220" width="120" height="60" as="geometry" />
        </mxCell>
      </root>
    </mxGraphModel>
  </diagram>
</mxfile>
